<svg width="22" height="17" viewBox="0 0 22 17" fill="none" xmlns="http://www.w3.org/2000/svg">
<path fill-rule="evenodd" clip-rule="evenodd" d="M10.6623 10.5809C10.374 10.5809 10.0793 10.6249 9.82951 10.7217C9.70694 10.7691 9.55705 10.844 9.42508 10.9649C9.29261 11.0863 9.12143 11.3111 9.12143 11.6329C9.12143 11.9546 9.29261 12.1794 9.42508 12.3007C9.55705 12.4217 9.70694 12.4965 9.82951 12.544C10.0793 12.6408 10.374 12.6848 10.6623 12.6848C10.9507 12.6848 11.2454 12.6408 11.4953 12.544C11.6177 12.4965 11.7676 12.4217 11.8996 12.3007C12.0322 12.1794 12.2033 11.9546 12.2033 11.6329C12.2033 11.3111 12.0322 11.0863 11.8996 10.9649C11.7676 10.844 11.6177 10.7691 11.4953 10.7217C11.2454 10.6249 10.9507 10.5809 10.6623 10.5809Z" fill="#72AE91"/>
<path d="M12.6592 8.31277C12.8225 8.04902 13.1452 7.73468 13.6292 7.73468C14.1131 7.73468 14.4358 8.04902 14.5991 8.31277C14.7695 8.5879 14.8507 8.92144 14.8507 9.25073C14.8507 9.57992 14.7695 9.91346 14.5991 10.1886C14.4358 10.4523 14.1131 10.7667 13.6292 10.7667C13.1452 10.7667 12.8225 10.4523 12.6592 10.1886C12.4888 9.91346 12.4076 9.57992 12.4076 9.25073C12.4076 8.92144 12.4888 8.5879 12.6592 8.31277Z" fill="#72AE91"/>
<path d="M7.68899 7.73468C7.20503 7.73468 6.88237 8.04902 6.71899 8.31277C6.54857 8.5879 6.46741 8.92144 6.46741 9.25073C6.46741 9.57992 6.54857 9.91346 6.71899 10.1886C6.88237 10.4523 7.20503 10.7667 7.68899 10.7667C8.17296 10.7667 8.49561 10.4523 8.65899 10.1886C8.82938 9.91346 8.91056 9.57992 8.91056 9.25073C8.91056 8.92144 8.82938 8.5879 8.65899 8.31277C8.49561 8.04902 8.17296 7.73468 7.68899 7.73468Z" fill="#72AE91"/>
<path fill-rule="evenodd" clip-rule="evenodd" d="M4.7966 0C4.18934 0 3.48953 0.17693 2.92935 0.659526C2.34863 1.15983 1.99992 1.91851 1.99992 2.90824V4.76457L1.99993 4.76749C2.00107 5.05852 2.05047 5.64083 2.2165 6.12756C2.27081 6.28686 2.35757 6.49803 2.50247 6.68852C2.22129 7.24591 2.08803 7.82083 2.02747 8.37525C1.97691 8.83819 1.97623 9.32411 1.98428 9.77279C1.32982 10.0001 0.652209 10.2815 0.339781 10.4832C-0.00471315 10.7057 -0.103618 11.1654 0.118864 11.5098C0.341346 11.8544 0.800972 11.9533 1.14546 11.7308C1.26072 11.6563 1.60076 11.5007 2.04807 11.3299C2.11626 11.8043 2.25448 12.2364 2.44748 12.6293C2.29314 12.7255 2.15677 12.8146 2.04829 12.8856C2.00675 12.9127 1.96931 12.9372 1.93651 12.9583C1.59201 13.1808 1.49311 13.6405 1.71559 13.9849C1.93807 14.3295 2.3977 14.4284 2.74219 14.2059C2.78291 14.1796 2.8263 14.1512 2.87209 14.1213C3.00196 14.0366 3.15117 13.9392 3.31368 13.8396C3.89732 14.4361 4.62215 14.8966 5.37509 15.2429C7.13817 16.0539 9.22619 16.3357 10.643 16.3357C12.0598 16.3357 14.1479 16.0539 15.9109 15.2429C16.6639 14.8966 17.3887 14.4361 17.9723 13.8396C18.1349 13.9392 18.2841 14.0366 18.4139 14.1213C18.4597 14.1512 18.5031 14.1796 18.5438 14.2059C18.8883 14.4284 19.3479 14.3295 19.5704 13.9849C19.7929 13.6405 19.694 13.1808 19.3495 12.9583C19.3167 12.9372 19.2793 12.9127 19.2377 12.8856C19.1292 12.8146 18.9928 12.7255 18.8386 12.6293C19.0316 12.2364 19.1699 11.8043 19.238 11.3298C19.6855 11.5006 20.0257 11.6563 20.141 11.7308C20.4854 11.9533 20.9451 11.8544 21.1676 11.5098C21.39 11.1654 21.2911 10.7057 20.9467 10.4832C20.6341 10.2815 19.9563 10 19.3017 9.77269C19.3099 9.32401 19.3092 8.83809 19.2586 8.37525C19.1981 7.82083 19.0647 7.24591 18.7835 6.68852C18.9285 6.49803 19.0152 6.28686 19.0696 6.12756C19.2356 5.64084 19.285 5.05852 19.2861 4.76749L19.2862 4.76457V2.90835C19.2862 1.91862 18.9374 1.15995 18.3567 0.659644C17.7966 0.177039 17.0967 0.000109052 16.4895 0.000109052C16.0851 0.000109052 15.6668 0.155288 15.3295 0.307665C14.972 0.4692 14.5983 0.679069 14.2623 0.872582C14.1901 0.914194 14.1199 0.954835 14.0516 0.994318L14.0497 0.995466C13.7883 1.14686 13.5563 1.28121 13.3496 1.38771C13.2212 1.45387 13.1215 1.49922 13.0473 1.5267C13.016 1.5383 12.996 1.54413 12.9857 1.54686C12.7348 1.54547 12.5749 1.52499 12.3439 1.4954C12.2944 1.48905 12.2416 1.48228 12.1838 1.47519C11.8407 1.43301 11.4074 1.39235 10.643 1.39235C9.87863 1.39235 9.44548 1.43301 9.10224 1.47519C9.04452 1.48228 8.99175 1.48905 8.94215 1.4954C8.71127 1.52499 8.55136 1.54547 8.30038 1.54686C8.29012 1.54413 8.27013 1.53829 8.23886 1.5267C8.16465 1.49922 8.06491 1.45386 7.93649 1.3877C7.72979 1.28119 7.49789 1.14688 7.23646 0.995466C7.16765 0.955617 7.09679 0.91457 7.0238 0.872543C6.68774 0.67901 6.31412 0.469121 5.9566 0.307576C5.61934 0.155189 5.20097 0 4.7966 0ZM4.863 13.2307C5.1937 13.4801 5.57472 13.7001 5.99573 13.8937C7.51138 14.5909 9.37361 14.8506 10.643 14.8506C11.9125 14.8506 13.7746 14.5909 15.2903 13.8937C15.7114 13.7001 16.0923 13.4801 16.423 13.2307C16.0741 13.1699 15.8089 12.8656 15.8089 12.4993C15.8089 12.0892 16.1413 11.7567 16.5514 11.7567C16.8753 11.7567 17.2064 11.8377 17.5137 11.9502C17.6707 11.6216 17.7672 11.2617 17.7936 10.8678C17.4989 10.7958 17.2953 10.7667 17.1905 10.7667C16.7804 10.7667 16.4479 10.4342 16.4479 10.0242C16.4479 9.61409 16.7804 9.28163 17.1905 9.28163C17.3832 9.28163 17.6013 9.31054 17.8211 9.35331C17.8212 9.07996 17.8123 8.81156 17.7823 8.53653C17.7125 7.89756 17.5316 7.33036 17.1048 6.82603C16.9522 6.64565 16.7623 6.46625 16.524 6.29121C16.1934 6.04855 16.1222 5.58382 16.365 5.25327C16.6076 4.92272 17.0724 4.85151 17.4029 5.09422C17.5208 5.1808 17.6323 5.26981 17.7375 5.36113C17.781 5.1352 17.8004 4.89889 17.8011 4.76296V2.90835C17.8011 2.28928 17.5968 1.96509 17.3874 1.78475C17.1575 1.5867 16.8303 1.48517 16.4895 1.48517C16.4198 1.48517 16.2456 1.52336 15.9409 1.661C15.6565 1.7895 15.3389 1.96634 15.0034 2.15953C14.9404 2.19581 14.8763 2.23298 14.8116 2.27044C14.5465 2.42405 14.2724 2.58285 14.0298 2.70785C13.8767 2.7867 13.7172 2.8622 13.5631 2.9193C13.4208 2.97202 13.224 3.032 13.0132 3.032C12.6451 3.032 12.3871 2.99861 12.1394 2.96656C12.0937 2.96065 12.0484 2.95477 12.0028 2.94916C11.7169 2.91405 11.3443 2.87742 10.643 2.87742C9.94189 2.87742 9.56914 2.91405 9.28331 2.94916C9.23777 2.95477 9.19243 2.96064 9.14669 2.96655C8.89908 2.99861 8.64104 3.032 8.27288 3.032C8.06216 3.032 7.86533 2.97201 7.723 2.91929C7.56883 2.86219 7.40933 2.78668 7.25629 2.70782C7.01368 2.58282 6.73962 2.42401 6.47455 2.27041C6.40987 2.23293 6.34572 2.19575 6.28269 2.15946C5.94719 1.96625 5.62951 1.78941 5.34511 1.6609C5.04045 1.52324 4.86627 1.48506 4.7966 1.48506C4.4558 1.48506 4.12854 1.58658 3.89865 1.78464C3.68932 1.96498 3.48498 2.28916 3.48498 2.90824V4.76297C3.48564 4.89891 3.50499 5.1352 3.54855 5.36113C3.65377 5.2698 3.76521 5.1808 3.88314 5.09422C4.21369 4.85151 4.67841 4.92272 4.92112 5.25327C5.16382 5.58382 5.09262 6.04855 4.76207 6.29121C4.52375 6.46625 4.33388 6.64565 4.18125 6.82603C3.75446 7.33036 3.57354 7.89756 3.50375 8.53653C3.47371 8.81156 3.46481 9.07996 3.46489 9.35341C3.68485 9.31064 3.90305 9.28163 4.09599 9.28163C4.50608 9.28163 4.83852 9.61409 4.83852 10.0242C4.83852 10.4342 4.50608 10.7667 4.09599 10.7667C3.99106 10.7667 3.78739 10.7958 3.49245 10.8678C3.51894 11.2617 3.61531 11.6216 3.77232 11.9501C4.07965 11.8377 4.41067 11.7567 4.73461 11.7567C5.14471 11.7567 5.47714 12.0892 5.47714 12.4993C5.47714 12.8656 5.2119 13.1699 4.863 13.2307Z" fill="#72AE91"/>
</svg>