<svg width="20" height="18" viewBox="0 0 20 18" fill="none" xmlns="http://www.w3.org/2000/svg">
<path d="M2.30179 11.2501C1.01049 11.2501 0 9.76284 0 7.86272C0 5.96259 1.01049 4.47534 2.30179 4.47534C3.59309 4.47534 4.60358 5.96259 4.60358 7.86272C4.60358 9.76284 3.59309 11.2501 2.30179 11.2501ZM2.30179 5.60034C1.75857 5.60034 1.1509 6.56784 1.1509 7.86272C1.1509 9.15759 1.75857 10.1251 2.30179 10.1251C2.84501 10.1251 3.45269 9.15759 3.45269 7.86272C3.45269 6.56784 2.84501 5.60034 2.30179 5.60034Z" fill="#FFFEF2"/>
<path d="M6.90306 6.75C5.61406 6.75 4.60358 5.26725 4.60358 3.375C4.60358 1.48275 5.61406 0 6.90306 0C8.19207 0 9.20255 1.48275 9.20255 3.375C9.20255 5.26725 8.19207 6.75 6.90306 6.75ZM6.90306 1.125C6.36099 1.125 5.75447 2.08687 5.75447 3.375C5.75447 4.66312 6.36099 5.625 6.90306 5.625C7.44514 5.625 8.05166 4.66312 8.05166 3.375C8.05166 2.08687 7.44514 1.125 6.90306 1.125Z" fill="#FFFEF2"/>
<path d="M12.66 6.75C11.3687 6.75 10.3582 5.26725 10.3582 3.375C10.3582 1.48275 11.3687 0 12.66 0C13.9513 0 14.9618 1.48275 14.9618 3.375C14.9618 5.26725 13.9513 6.75 12.66 6.75ZM12.66 1.125C12.1168 1.125 11.5091 2.08687 11.5091 3.375C11.5091 4.66312 12.1168 5.625 12.66 5.625C13.2032 5.625 13.8109 4.66312 13.8109 3.375C13.8109 2.08687 13.2032 1.125 12.66 1.125Z" fill="#FFFEF2"/>
<path d="M17.2635 11.2501C15.9722 11.2501 14.9617 9.76284 14.9617 7.86272C14.9617 5.96259 15.9722 4.47534 17.2635 4.47534C18.5548 4.47534 19.5653 5.96259 19.5653 7.86272C19.5653 9.76284 18.5548 11.2501 17.2635 11.2501ZM17.2635 5.60034C16.7202 5.60034 16.1126 6.56784 16.1126 7.86272C16.1126 9.15759 16.7202 10.1251 17.2635 10.1251C17.8067 10.1251 18.4144 9.15759 18.4144 7.86272C18.4144 6.56784 17.8067 5.60034 17.2635 5.60034Z" fill="#FFFEF2"/>
<path d="M13.8109 18C12.8119 18 12.1363 17.6692 11.5413 17.3779C10.9889 17.1079 10.5124 16.875 9.78273 16.875C9.05652 16.875 8.58005 17.1079 8.02762 17.3779C7.4303 17.6692 6.75358 18 5.7546 18C5.1147 18 4.51279 17.6591 4.10076 17.0651C3.37915 16.0234 3.36764 14.4427 4.06854 12.7282C5.33107 9.6435 7.41304 7.875 9.78158 7.875C12.1501 7.875 14.2332 9.6435 15.4946 12.7282C16.1955 14.4427 16.184 16.0234 15.4624 17.0651C15.0515 17.6591 14.4485 18 13.8086 18H13.8109ZM9.78273 15.75C10.7829 15.75 11.4596 16.0807 12.0558 16.3721C12.607 16.6421 13.0835 16.875 13.8109 16.875C14.0618 16.875 14.3173 16.7141 14.5118 16.4351C15.0089 15.7185 14.9767 14.4889 14.4277 13.1467C13.3494 10.512 11.6564 9 9.78273 9C7.90908 9 6.21611 10.5109 5.13772 13.1467C4.58874 14.4889 4.55767 15.7185 5.05371 16.4351C5.24706 16.7152 5.50255 16.875 5.7546 16.875C6.48197 16.875 6.95959 16.6421 7.51317 16.371C8.10933 16.0796 8.78606 15.7489 9.78273 15.7489V15.75Z" fill="#FFFEF2"/>
</svg>
