<svg width="22" height="17" viewBox="0 0 22 17" fill="none" xmlns="http://www.w3.org/2000/svg">
<path d="M21.1803 16.1408C20.8394 16.0921 20.4986 16.0678 20.1578 16.0191C19.2813 15.9217 18.4049 15.7269 17.5528 15.4105C16.3599 14.9722 15.3374 14.2906 14.5097 13.2924C14.0228 12.7082 13.5602 12.0752 13.0977 11.4666C12.4404 10.6388 11.71 9.90846 10.8092 9.39722C9.83543 8.83728 8.78859 8.4721 7.7174 8.22865C6.4758 7.93651 5.20986 7.83913 3.7248 7.81478C3.5057 7.79044 3.06749 7.83913 2.65362 7.79044C1.87457 7.7174 1.33898 7.35223 1.0225 6.64622C0.803389 6.18366 0.779044 5.69676 0.779044 5.20986C0.779044 4.38212 0.852079 3.55439 1.04684 2.751C1.16857 2.21541 1.31464 1.67981 1.55809 1.19291C1.60678 1.09553 1.63112 0.973805 1.63112 0.852079C1.65547 0.389522 1.29029 0.0243451 0.852079 0C0.365177 0 0 0.365177 0 0.852079C0 1.67981 0 2.50755 0.0243451 3.31094C0.0730354 4.08998 0.146071 4.86902 0.243451 5.62372C0.389522 6.76794 0.632973 7.86347 1.04684 8.93466C1.33898 9.73805 1.70416 10.4927 2.16672 11.2231C3.53004 13.3411 5.35593 14.8749 7.76609 15.6783C8.69121 15.9704 9.61632 16.1652 10.5658 16.2625C11.2474 16.3356 11.9048 16.3843 12.5864 16.3843C12.6838 16.3843 12.7082 16.3599 12.7082 16.2625C12.6838 16.1165 12.6838 15.9947 12.7082 15.8487C12.7082 15.7269 12.6595 15.7026 12.5377 15.7026C11.4909 15.7026 10.4197 15.6052 9.39722 15.3618C8.56948 15.167 7.79044 14.8992 7.10878 14.388C6.7436 14.0958 6.40277 13.755 6.2567 13.2681C6.11063 12.8055 6.18366 12.3673 6.57318 12.0265C6.91401 11.71 7.35223 11.637 7.79044 11.71C8.32603 11.8074 8.78859 12.0265 9.25115 12.2943C10.225 12.8542 11.1744 13.4872 12.1239 14.1202C13.6576 15.1427 15.3131 15.8487 17.1146 16.2382C17.991 16.433 18.8918 16.5547 19.7682 16.6764C20.2065 16.7251 20.669 16.7738 21.1072 16.8225C21.2046 16.8225 21.2533 16.7981 21.2533 16.7008C21.2533 16.5547 21.2776 16.4086 21.2776 16.2625C21.302 16.1652 21.2776 16.1408 21.1803 16.1408ZM14.5584 12.2699C15.6296 12.8299 16.9442 12.6351 17.8693 11.8074C18.4779 11.2718 18.9892 10.0545 18.8188 9.56763C18.5753 10.1763 18.1128 10.5658 17.4555 10.5901C16.6764 10.6388 16.1652 10.2493 15.873 9.54329C15.5809 10.2493 15.0696 10.6632 14.2662 10.5901C13.6089 10.5658 13.1707 10.1763 12.9273 9.51894C12.8542 10.5414 13.4142 11.71 14.5584 12.2699ZM14.534 7.54699C15.1914 7.62002 15.6296 7.9852 15.873 8.61817C16.1165 7.9852 16.5547 7.62002 17.212 7.54699C17.8693 7.4983 18.3806 7.79044 18.7457 8.37472V5.35593C18.6971 5.42896 18.6727 5.45331 18.6484 5.502C18.2832 5.9889 17.918 6.50015 17.5528 7.0114C17.5041 7.08443 17.4798 7.13312 17.3824 7.06009C16.3843 6.50015 15.3861 6.50015 14.3636 7.06009C14.2906 7.10878 14.2662 7.10878 14.2176 7.03574C13.9498 6.64622 13.682 6.28104 13.4142 5.89152C13.2924 5.7211 13.1464 5.55069 13.0246 5.35593V8.39907C13.3655 7.79044 13.8524 7.4983 14.534 7.54699ZM16.3112 9.08073C16.3112 9.64067 16.7738 10.1032 17.3337 10.1276C17.918 10.1276 18.3806 9.64067 18.3806 9.08073C18.3806 8.52079 17.918 8.05824 17.3581 8.03389C16.7981 8.03389 16.3112 8.49645 16.3112 9.08073ZM14.388 8.03389C13.828 8.03389 13.3655 8.49645 13.3655 9.08073C13.3655 9.64067 13.828 10.1032 14.388 10.1032C14.9722 10.1276 15.4348 9.64067 15.4348 9.08073C15.4348 8.52079 14.9722 8.03389 14.388 8.03389Z" fill="#72B594"/>
</svg>