<svg width="38" height="27" viewBox="0 0 38 27" fill="none" xmlns="http://www.w3.org/2000/svg">
<path d="M3.58484 24.6419C-1.25869 21.5427 -1.16842 16.545 3.69974 13.457L21.0877 2.42739C24.7613 0.0970616 30.7326 0.0968561 34.4065 2.42739C38.0447 4.73519 38.0491 8.45877 34.4065 10.7693L19.2493 20.3746C16.7745 21.9443 12.731 21.9224 10.2982 20.3233C7.9543 18.7826 8.02949 16.3407 10.4185 14.8253L22.334 7.2771C22.8465 6.95253 23.6862 6.94697 24.2096 7.26471L26.1047 8.41512C26.6281 8.73291 26.637 9.25365 26.1246 9.57823L14.2104 17.1257C13.8015 17.385 13.7763 17.8159 14.1566 18.066C14.5191 18.3042 15.0888 18.3081 15.4571 18.0745L30.6143 8.46925C32.2401 7.43795 32.2401 5.75889 30.6134 4.72702C29.0227 3.71808 26.4722 3.71757 24.8809 4.72702L7.49283 15.7566C4.61116 17.5846 4.56673 20.5435 7.3941 22.3526C10.2133 24.1566 14.7705 24.1589 17.595 22.3673L31.8578 13.32C32.3698 12.9952 33.2096 12.9893 33.7334 13.3068L35.6298 14.4565C36.1536 14.774 36.1631 15.2947 35.651 15.6196L21.3881 24.6669C16.4496 27.7994 8.46129 27.7623 3.58484 24.6419Z" fill="#F4C3C3"/>
</svg>