<?xml version="1.0" encoding="UTF-8"?>
<svg viewBox="0 0 21 19" xmlns="http://www.w3.org/2000/svg">
<path d="m2.4155 11.806c-1.3551 0-2.4155-1.5608-2.4155-3.5548 0-1.994 1.0604-3.5547 2.4155-3.5547s2.4155 1.5607 2.4155 3.5547c0 1.994-1.0604 3.5548-2.4155 3.5548zm0-5.9289c-0.57006 0-1.2078 1.0153-1.2078 2.3742s0.6377 2.3742 1.2078 2.3742 1.2078-1.0153 1.2078-2.3742-0.6377-2.3742-1.2078-2.3742z" fill="#448D70"/>
<path d="m7.2441 7.0835c-1.3527 0-2.4131-1.556-2.4131-3.5418 0-1.9857 1.0604-3.5418 2.4131-3.5418s2.4131 1.556 2.4131 3.5418c0 1.9858-1.0604 3.5418-2.4131 3.5418zm0-5.9029c-0.56886 0-1.2054 1.0094-1.2054 2.3612s0.63649 2.3612 1.2054 2.3612c0.56885 0 1.2053-1.0094 1.2053-2.3612s-0.63649-2.3612-1.2053-2.3612z" fill="#448D70"/>
<path d="m13.286 7.0835c-1.3551 0-2.4155-1.556-2.4155-3.5418 0-1.9857 1.0604-3.5418 2.4155-3.5418s2.4155 1.556 2.4155 3.5418c0 1.9858-1.0604 3.5418-2.4155 3.5418zm0-5.9029c-0.57 0-1.2077 1.0094-1.2077 2.3612s0.6377 2.3612 1.2077 2.3612c0.5701 0 1.2078-1.0094 1.2078-2.3612s-0.6377-2.3612-1.2078-2.3612z" fill="#448D70"/>
<path d="m18.116 11.806c-1.3551 0-2.4155-1.5608-2.4155-3.5548 0-1.994 1.0604-3.5547 2.4155-3.5547s2.4155 1.5607 2.4155 3.5547c0 1.994-1.0604 3.5548-2.4155 3.5548zm0-5.9289c-0.5701 0-1.2078 1.0153-1.2078 2.3742s0.6377 2.3742 1.2078 2.3742c0.57 0 1.2077-1.0153 1.2077-2.3742s-0.6377-2.3742-1.2077-2.3742z" fill="#448D70"/>
<path d="m14.493 18.889c-1.0483 0-1.7573-0.3471-2.3817-0.6528-0.5797-0.2834-1.0797-0.5278-1.8455-0.5278-0.76205 0-1.2621 0.2444-1.8418 0.5278-0.62682 0.3057-1.337 0.6528-2.3853 0.6528-0.67151 0-1.3032-0.3577-1.7356-0.981-0.75727-1.0933-0.76934-2.752-0.03382-4.5512 1.3249-3.2372 3.5098-5.093 5.9953-5.093 2.4856 0 4.6717 1.8558 5.9954 5.093 0.7355 1.7992 0.7234 3.4579-0.0339 4.5512-0.4311 0.6233-1.064 0.981-1.7355 0.981h0.0024zm-4.2272-2.3611c1.0496 0 1.7598 0.347 2.3854 0.6528 0.5785 0.2834 1.0785 0.5277 1.8418 0.5277 0.2633 0 0.5314-0.1688 0.7355-0.4616 0.5218-0.752 0.488-2.0424-0.0881-3.4508-1.1317-2.7649-2.9083-4.3517-4.8746-4.3517-1.9662 0-3.7428 1.5856-4.8745 4.3517-0.5761 1.4084-0.60871 2.6988-0.08817 3.4508 0.20291 0.294 0.47103 0.4616 0.73553 0.4616 0.7633 0 1.2645-0.2443 1.8455-0.5289 0.62561-0.3057 1.3358-0.6528 2.3816-0.6528v0.0012z" fill="#448D70"/>
</svg>
